<?xml version="1.0" encoding="UTF-8" standalone="no"?>
<!-- Created with Inkscape (http://www.inkscape.org/) -->

<svg
   width="1189mm"
   height="841mm"
   viewBox="0 0 1189 841"
   version="1.1"
   id="svg1"
   inkscape:version="1.3 (0e150ed6c4, 2023-07-21)"
   sodipodi:docname="petrovic-print-a0-svetla1.svg"
   xmlns:inkscape="http://www.inkscape.org/namespaces/inkscape"
   xmlns:sodipodi="http://sodipodi.sourceforge.net/DTD/sodipodi-0.dtd"
   xmlns="http://www.w3.org/2000/svg"
   xmlns:svg="http://www.w3.org/2000/svg">
  <sodipodi:namedview
     id="namedview1"
     pagecolor="#ffffff"
     bordercolor="#000000"
     borderopacity="0.25"
     inkscape:showpageshadow="2"
     inkscape:pageopacity="0.0"
     inkscape:pagecheckerboard="0"
     inkscape:deskcolor="#d1d1d1"
     inkscape:document-units="mm"
     inkscape:zoom="0.18685641"
     inkscape:cx="2167.4397"
     inkscape:cy="1656.352"
     inkscape:window-width="1920"
     inkscape:window-height="1043"
     inkscape:window-x="0"
     inkscape:window-y="0"
     inkscape:window-maximized="1"
     inkscape:current-layer="g369"
     showguides="true">
    <sodipodi:guide
       position="0,840.99998"
       orientation="0.5774647,0.81641565"
       id="guide1"
       inkscape:locked="false" />
    <sodipodi:guide
       position="1189,840.99999"
       orientation="0.57746472,-0.81641564"
       id="guide2"
       inkscape:locked="false" />
    <sodipodi:guide
       position="158.53516,371.9772"
       orientation="-1,0"
       id="guide3"
       inkscape:locked="false"
       inkscape:label=""
       inkscape:color="rgb(0,134,229)" />
    <sodipodi:guide
       position="591.87603,611.06685"
       orientation="0,1"
       id="guide4"
       inkscape:locked="false"
       inkscape:label=""
       inkscape:color="rgb(0,134,229)" />
  </sodipodi:namedview>
  <defs
     id="defs1">
    <inkscape:path-effect
       effect="bend_path"
       id="path-effect370"
       is_visible="true"
       lpeversion="1"
       bendpath="m 196.63842,30.285288 c 98.0494,-24.4945519 195.89787,-24.3651001 293.54857,0"
       prop_scale="1"
       scale_y_rel="false"
       vertical="false"
       hide_knot="false"
       bendpath-nodetypes="cc" />
  </defs>
  <g
     inkscape:label="Sloj 1"
     inkscape:groupmode="layer"
     id="layer1"
     transform="matrix(2.6954585,0,0,2.6954585,-1010.7865,-847.3866)">
    <g
       inkscape:label="Logo-Variant1"
       inkscape:groupmode="layer"
       id="g369"
       style="display:inline"
       transform="translate(229.97535,365.85764)">
      <rect
         style="display:inline;fill:#f4e3d7;stroke-width:2.24351;stroke-linejoin:bevel;paint-order:fill markers stroke"
         id="rect376"
         width="441.11237"
         height="312.00629"
         x="145.02077"
         y="-51.481964"
         inkscape:label="background" />
      <g
         id="g368"
         style="display:inline"
         inkscape:label="logo-group"
         transform="matrix(0.87903984,0,0,0.87903984,44.220245,12.642898)">
        <g
           id="g303"
           inkscape:label="tree"
           style="display:inline;fill:#502d16">
          <path
             style="display:inline;fill:#502d16;stroke-width:2.632;stroke-linejoin:bevel;paint-order:fill markers stroke"
             d="m 292.46843,149.97325 -4.34546,0.0211 c 0,0 0.19196,-8.98753 -0.94981,-20.3743 -1.13418,-11.31111 -7.19247,-29.09617 -19.79443,-36.354092 -20.18561,-11.625619 -71.63545,-4.72464 -61.058,-6.633454 14.47618,-2.612382 52.07323,-1.221815 62.38763,4.825811 12.41941,7.281858 21.7082,22.372445 22.73154,37.950515 0.51034,7.76869 1.02853,20.56443 1.02853,20.56443 z"
             id="path295"
             sodipodi:nodetypes="ccssssscc"
             sodipodi:insensitive="true"
             inkscape:label="tree1" />
          <path
             style="display:inline;fill:#502d16;fill-opacity:1;stroke-width:2.632;stroke-linejoin:bevel;paint-order:fill markers stroke"
             d="m 291.78426,149.97657 c 0,0 -0.31774,-28.33014 -1.13268,-37.51872 -0.81495,-9.18859 -17.94102,-29.250202 -26.75508,-29.315482 -8.18968,-0.06066 -23.13698,11.173122 -30.10621,13.486692 -6.58213,2.185067 -29.07042,0.160224 -38.73199,-1.953041 -11.70628,-2.560502 27.49091,4.455367 37.5701,0.429809 11.08427,-4.426981 21.97447,-14.438914 31.13067,-14.476871 10.09583,-0.04185 29.60787,17.832758 31.72926,31.333583 2.61248,16.62623 2.3846,38.0318 2.3846,38.0318 -2.23342,0.0249 -3.71583,-0.007 -6.08867,-0.0173 z"
             id="path296"
             sodipodi:nodetypes="csssssssccc"
             sodipodi:insensitive="true"
             inkscape:label="tree2" />
          <path
             style="display:inline;fill:#502d16;stroke:none;stroke-width:2.632;stroke-linejoin:bevel;stroke-dasharray:none;paint-order:fill markers stroke"
             d="m 357.76987,77.354632 c 41.06054,-3.28505 54.29273,6.738708 76.33268,10.368259 26.29597,4.330432 72.54586,-4.587796 92.04117,-11.788494 7.80904,-2.884312 -61.36487,15.443319 -91.52795,7.642245 -32.65998,-8.446849 -48.22056,-12.281829 -76.95587,-11.303469 -28.73534,0.97837 -51.43444,19.977102 -57.68918,37.130887 -3.74979,10.28391 -6.31397,28.24786 -6.52223,40.59028 3.17799,-0.0317 5.8207,0.009 5.8207,0.009 1.46991,-10.93454 2.30061,-27.15445 6.45973,-37.27064 8.88618,-23.479783 28.43522,-33.489781 52.04095,-35.378358 z"
             id="path297"
             sodipodi:nodetypes="ssssssccss"
             inkscape:label="tree3" />
          <path
             style="fill:#502d16;stroke:none;stroke-width:2.632;stroke-linejoin:bevel;stroke-dasharray:none;paint-order:fill markers stroke"
             d="m 286.46042,149.97325 c 0,0 -4.79471,-62.542733 56.19984,-64.011671 60.99455,-1.468937 94.61585,13.818829 87.14226,10.494272 -23.78073,-10.57864 -53.75294,-14.067468 -86.90913,-15.065335 -16.36259,-0.492448 -43.64274,8.470208 -53.07138,27.600764 -11.38492,23.09981 -8.89185,40.96628 -8.89185,40.96628 z"
             id="path298"
             sodipodi:nodetypes="csssscc"
             inkscape:label="tree4" />
          <path
             style="fill:#502d16;stroke:none;stroke-width:2.632;stroke-linejoin:bevel;stroke-dasharray:none;paint-order:fill markers stroke"
             d="m 302.07254,150.01904 c 0,0 2.75128,-11.41301 0.63462,-19.4828 -2.11667,-8.06979 -9.95182,-16.74055 -8.49661,-31.557213 1.45521,-14.816666 16.29556,-35.912526 37.29482,-36.406154 5.99366,-0.140892 20.48131,5.183736 28.71905,13.958406 3.67576,3.915342 7.8729,15.114837 4.80979,21.598414 -1.27906,2.707347 4.0696,-8.242439 -6.0058,-20.967269 -5.82429,-7.35585 -20.78545,-12.194922 -27.39539,-12.153235 -15.84795,0.09995 -33.85722,18.384817 -34.27498,33.703482 -0.46259,16.962649 4.67354,17.954099 8.98568,29.168099 3.10964,8.08681 1.0701,22.12286 1.0701,22.12286 z"
             id="path299"
             sodipodi:nodetypes="cssssssssscc"
             inkscape:label="tree5" />
          <path
             style="fill:#502d16;fill-opacity:1;stroke-width:2.632;stroke-linejoin:bevel;paint-order:fill markers stroke"
             d="m 223.75005,77.022618 c -1.10901,0.915096 8.39819,-4.049115 18.41851,-2.618375 5.62536,0.80321 6.79715,6.282884 22.23184,8.512915 1.18331,0.170966 0.79235,-1.949485 -0.0486,-2.119764 -14.92199,-3.021464 -15.16413,-6.976271 -22.09622,-7.910121 -7.80126,-1.05094 -14.7253,1.01611 -18.50553,4.135345 z"
             id="path300"
             sodipodi:nodetypes="ssssss"
             inkscape:label="tree6" />
          <path
             style="fill:#502d16;fill-opacity:1;stroke-width:2.632;stroke-linejoin:bevel;paint-order:fill markers stroke"
             d="m 406.53228,77.390624 c 0,0 21.39924,4.999178 56.16252,-8.751194 2.96266,-1.171859 -21.21465,12.476963 -52.12762,11.860048 -8.17434,-0.163131 -4.0349,-3.108854 -4.0349,-3.108854 z"
             id="path301"
             sodipodi:nodetypes="cssc"
             inkscape:label="tree7" />
          <path
             style="fill:#502d16;fill-opacity:1;stroke-width:2.632;stroke-linejoin:bevel;paint-order:fill markers stroke"
             d="m 297.78853,88.933072 2.21589,-4.564061 c 0,0 1.53357,-2.786134 -0.49609,-11.145574 -1.55118,-6.388743 -10.57112,-14.432911 -7.73907,-10.781771 2.93587,3.784985 5.58679,6.931064 6.54844,11.707812 0.96141,4.775539 -0.52917,14.783594 -0.52917,14.783594 z"
             id="path302"
             sodipodi:nodetypes="ccsssc"
             inkscape:label="tree8" />
          <path
             style="fill:#502d16;fill-opacity:1;stroke-width:2.632;stroke-linejoin:bevel;paint-order:fill markers stroke"
             d="m 284.87376,94.390791 -2.14973,-2.711979 c 0,0 -1.01836,-4.910745 -0.41362,-8.30199 0.60014,-3.365454 3.13007,-6.095106 4.56406,-7.871354 1.86166,-2.305987 -3.02995,4.599017 -3.5388,8.003645 -0.51417,3.440205 1.53809,10.881678 1.53809,10.881678 z"
             id="path303"
             sodipodi:nodetypes="ccsssc"
             inkscape:label="tree9" />
        </g>
        <g
           id="g364"
           style="display:inline;fill:#447821"
           inkscape:label="leaves">
          <path
             style="fill:#447821;fill-opacity:1;stroke-width:2.632;stroke-linejoin:bevel;paint-order:fill markers stroke"
             d="m 213.97095,85.289597 c -1.36224,0.274784 -2.34825,-1.976281 -2.28014,-3.858704 0.0605,-1.671381 0.73105,-3.386702 1.47333,-6.267471 1.09307,2.895595 3.02377,3.856053 3.32082,5.706205 0.31992,1.992653 -0.75722,4.325206 -1.67211,4.361503 -0.54957,-1.41486 -0.8185,-3.730081 -0.8185,-3.730081 0,0 0.12274,2.765409 -0.0234,3.788548 z"
             id="path304"
             sodipodi:nodetypes="cscsccc" />
          <path
             style="fill:#447821;fill-opacity:1;stroke-width:2.4748;stroke-linejoin:bevel;paint-order:fill markers stroke"
             d="m 218.80728,85.001889 c -1.32779,0.09073 -2.01121,-2.084808 -1.73305,-3.798813 0.24698,-1.521845 1.07967,-3.011939 2.11271,-5.559727 0.71227,2.777779 2.44116,3.884077 2.51422,5.611619 0.0787,1.860601 -1.21095,3.867395 -2.08589,3.792714 -0.36277,-1.359117 -0.35636,-3.508789 -0.35636,-3.508789 0,0 -0.19657,2.544264 -0.45159,3.463001 z"
             id="path305"
             sodipodi:nodetypes="cscsccc" />
          <path
             style="fill:#447821;fill-opacity:1;stroke-width:2.4204;stroke-linejoin:bevel;paint-order:fill markers stroke"
             d="m 197.8213,93.974663 c -1.23233,0.256875 -2.1243,-1.847478 -2.06269,-3.607216 0.0547,-1.56245 0.66133,-3.165976 1.33282,-5.858994 0.98883,2.706877 2.7354,3.604738 3.00412,5.334308 0.28941,1.862784 -0.68501,4.043314 -1.51264,4.077246 -0.49716,-1.322648 -0.74044,-3.486976 -0.74044,-3.486976 0,0 0.11103,2.585175 -0.0212,3.541632 z"
             id="path306"
             sodipodi:nodetypes="cscsccc" />
          <path
             style="fill:#447821;fill-opacity:1;stroke-width:2.07986;stroke-linejoin:bevel;paint-order:fill markers stroke"
             d="m 213.09214,95.589698 c -1.12096,0.208522 -1.93234,-1.499711 -1.87629,-2.928198 0.0498,-1.268337 0.60157,-2.570018 1.21238,-4.756105 0.89947,2.197338 2.48822,2.926187 2.73266,4.330185 0.26325,1.512136 -0.62311,3.282206 -1.37596,3.30975 -0.45223,-1.073674 -0.67353,-2.830592 -0.67353,-2.830592 0,0 0.101,2.098546 -0.0193,2.87496 z"
             id="path307"
             sodipodi:nodetypes="cscsccc" />
          <path
             style="fill:#447821;fill-opacity:1;stroke-width:2.31825;stroke-linejoin:bevel;paint-order:fill markers stroke"
             d="m 218.4779,95.720706 c -1.396,0.04512 -2.18412,-1.784128 -1.94475,-3.206535 0.21254,-1.26294 1.04311,-2.485952 2.0516,-4.586059 0.83739,2.33194 2.69343,3.293888 2.82452,4.735655 0.14117,1.552812 -1.1546,3.196047 -2.07872,3.113683 -0.42474,-1.141303 -0.48531,-2.933131 -0.48531,-2.933131 0,0 -0.12742,2.11639 -0.36732,2.87639 z"
             id="path308"
             sodipodi:nodetypes="cscsccc" />
          <path
             style="fill:#447821;fill-opacity:1;stroke-width:1.95728;stroke-linejoin:bevel;paint-order:fill markers stroke"
             d="m 223.60687,97.939185 c -1.13953,-0.181662 -1.96434,1.306507 -1.90736,2.550965 0.0506,1.10494 0.61153,2.23893 1.23245,4.14339 0.91436,-1.91426 2.52941,-2.54922 2.7779,-3.77234 0.26761,-1.317335 -0.63342,-2.85937 -1.39874,-2.883368 -0.45972,0.935356 -0.68468,2.465938 -0.68468,2.465938 0,0 0.10267,-1.8282 -0.0196,-2.504585 z"
             id="path309"
             sodipodi:nodetypes="cscsccc" />
          <path
             style="fill:#447821;fill-opacity:1;stroke-width:1.86086;stroke-linejoin:bevel;paint-order:fill markers stroke"
             d="m 230.83393,95.239556 c -0.97249,0.192408 -1.67639,-1.383788 -1.62777,-2.701856 0.0432,-1.170298 0.52189,-2.371363 1.0518,-4.388474 0.78033,2.027492 2.15864,2.700001 2.3707,3.995474 0.22839,1.395257 -0.54057,3.028506 -1.1937,3.053923 -0.39234,-0.990683 -0.58432,-2.611797 -0.58432,-2.611797 0,0 0.0876,1.936336 -0.0167,2.65273 z"
             id="path310"
             sodipodi:nodetypes="cscsccc" />
          <path
             style="fill:#447821;fill-opacity:1;stroke-width:1.90857;stroke-linejoin:bevel;paint-order:fill markers stroke"
             d="m 241.37036,93.486432 c -1.10649,0.304718 -0.96887,1.852843 -0.19769,2.850187 0.6847,0.88554 1.83467,1.591714 3.48379,2.90553 -0.30592,-1.932998 0.74528,-3.096367 0.25486,-4.197824 -0.52821,-1.18629 -2.21344,-2.091549 -2.89977,-1.806567 0.13824,0.949652 0.82732,2.293774 0.82732,2.293774 0,0 -0.96913,-1.539376 -1.46845,-2.045124 z"
             id="path311"
             sodipodi:nodetypes="cscsccc" />
          <path
             style="fill:#447821;fill-opacity:1;stroke-width:2.48191;stroke-linejoin:bevel;paint-order:fill markers stroke"
             d="m 232.9585,85.164543 c -1.36224,0.244345 -2.34825,-1.75732 -2.28014,-3.431175 0.0605,-1.486198 0.73105,-3.011468 1.47333,-5.573059 1.09307,2.574774 3.02377,3.428815 3.32082,5.073975 0.31992,1.771881 -0.75722,3.845998 -1.67211,3.878276 -0.54957,-1.258103 -0.8185,-3.316806 -0.8185,-3.316806 0,0 0.12274,2.459014 -0.0234,3.368789 z"
             id="path312"
             sodipodi:nodetypes="cscsccc" />
          <path
             style="fill:#447821;fill-opacity:1;stroke-width:2.58803;stroke-linejoin:bevel;paint-order:fill markers stroke"
             d="m 233.93599,72.532056 c -1.49215,0.242554 -2.5722,-1.74444 -2.49759,-3.406026 0.0663,-1.475305 0.80077,-2.989395 1.61384,-5.532211 1.19731,2.555902 3.31214,3.403683 3.63752,5.036786 0.35043,1.758894 -0.82943,3.817808 -1.83158,3.84985 -0.60198,-1.248883 -0.89656,-3.292496 -0.89656,-3.292496 0,0 0.13445,2.440991 -0.0256,3.344097 z"
             id="path313"
             sodipodi:nodetypes="cscsccc" />
          <path
             style="fill:#447821;fill-opacity:1;stroke-width:2.12655;stroke-linejoin:bevel;paint-order:fill markers stroke"
             d="m 240.60282,74.708427 c -1.35103,-0.18087 -2.32893,1.300807 -2.26139,2.53983 0.06,1.100116 0.72504,2.229154 1.46122,4.1253 1.08408,-1.905904 2.99891,-2.538083 3.29351,-3.755867 0.3173,-1.311585 -0.75099,-2.846892 -1.65836,-2.870785 -0.54505,0.931276 -0.81177,2.455172 -0.81177,2.455172 0,0 0.12179,-1.820214 -0.0231,-2.49365 z"
             id="path314"
             sodipodi:nodetypes="cscsccc" />
          <path
             style="fill:#447821;fill-opacity:1;stroke-width:2.35453;stroke-linejoin:bevel;paint-order:fill markers stroke"
             d="m 204.99644,86.400084 c -1.09609,0.45461 -2.28738,-1.488015 -2.53608,-3.243434 -0.22083,-1.558614 0.0621,-3.247467 0.21578,-6.027468 1.38562,2.524535 3.15835,3.131894 3.7076,4.803828 0.59155,1.800717 0.0684,4.121519 -0.6918,4.289376 -0.69,-1.231287 -1.29124,-3.338569 -1.29124,-3.338569 0,0 0.55194,2.546154 0.59573,3.516268 z"
             id="path315"
             sodipodi:nodetypes="cscsccc" />
          <path
             style="fill:#447821;fill-opacity:1;stroke-width:2.10594;stroke-linejoin:bevel;paint-order:fill markers stroke"
             d="m 192.66937,94.369808 c -0.0678,1.077326 -2.06968,1.371021 -3.55564,0.946398 -1.31937,-0.377037 -2.54527,-1.220835 -4.68494,-2.349722 2.53803,-0.246202 3.71015,-1.505263 5.24729,-1.361214 1.65556,0.155151 3.28776,1.426691 3.12401,2.120818 -1.2434,0.131913 -3.1453,-0.125521 -3.1453,-0.125521 0,0 2.22992,0.456518 3.01458,0.769241 z"
             id="path316"
             sodipodi:nodetypes="cscsccc" />
          <path
             style="fill:#447821;fill-opacity:1;stroke-width:2.25474;stroke-linejoin:bevel;paint-order:fill markers stroke"
             d="m 250.98131,76.037103 c -1.11513,-0.180846 -1.1799,-2.387724 -0.55789,-3.962106 0.55228,-1.397873 1.57999,-2.647715 3.01518,-4.863317 -0.0494,2.785526 1.12199,4.185686 0.78637,5.843618 -0.36153,1.785625 -1.88421,3.435015 -2.58822,3.18794 0.0124,-1.365781 0.51029,-3.40925 0.51029,-3.40925 0,0 -0.745,2.380543 -1.16573,3.203115 z"
             id="path317"
             sodipodi:nodetypes="cscsccc" />
          <path
             style="fill:#447821;fill-opacity:1;stroke-width:2.632;stroke-linejoin:bevel;paint-order:fill markers stroke"
             d="m 269.63924,81.673466 c -1.36224,0.274789 -2.34825,-1.976285 -2.28014,-3.858705 0.0605,-1.67138 0.73105,-3.386701 1.47333,-6.26747 1.09307,2.895595 3.02377,3.85605 3.32082,5.7062 0.31992,1.99266 -0.75722,4.325215 -1.67211,4.361515 -0.54957,-1.414865 -0.8185,-3.730085 -0.8185,-3.730085 0,0 0.12274,2.76541 -0.0234,3.788545 z"
             id="path318"
             sodipodi:nodetypes="cscsccc" />
          <path
             style="fill:#447821;fill-opacity:1;stroke-width:2.16725;stroke-linejoin:bevel;paint-order:fill markers stroke"
             d="m 283.32274,79.485065 c -0.7472,0.873541 -2.58709,-0.004 -3.54056,-1.199204 -0.84656,-1.061256 -1.31655,-2.464952 -2.3575,-4.623927 2.25181,1.219339 4.02658,0.81315 5.2023,1.799738 1.26625,1.062589 1.79703,3.056836 1.21659,3.552154 -1.11042,-0.587809 -2.5143,-1.875531 -2.5143,-1.875531 0,0 1.54675,1.640722 1.99347,2.34677 z"
             id="path319"
             sodipodi:nodetypes="cscsccc" />
          <path
             style="fill:#447821;fill-opacity:1;stroke-width:2.24888;stroke-linejoin:bevel;paint-order:fill markers stroke"
             d="m 283.94713,83.738702 c -0.71986,-0.94511 0.63668,-2.54886 2.10478,-3.20307 1.30351,-0.580845 2.86876,-0.708744 5.35399,-1.21893 -1.81045,1.928074 -1.82473,3.774305 -3.13158,4.697395 -1.40751,0.994185 -3.59779,1.040904 -3.96764,0.350512 0.87885,-0.95401 2.55263,-2.030039 2.55263,-2.030039 0,0 -2.07344,1.132525 -2.91218,1.404132 z"
             id="path320"
             sodipodi:nodetypes="cscsccc" />
          <path
             style="fill:#447821;fill-opacity:1;stroke-width:2.25536;stroke-linejoin:bevel;paint-order:fill markers stroke"
             d="m 255.08866,89.330789 c -1.17665,-0.233598 -2.02832,1.680038 -1.96949,3.280283 0.0523,1.420839 0.63145,2.879032 1.2726,5.327972 0.94415,-2.461544 2.6118,-3.278026 2.86838,-4.850837 0.27633,-1.693959 -0.65405,-3.676863 -1.4443,-3.707721 -0.47469,1.202775 -0.70698,3.170943 -0.70698,3.170943 0,0 0.10602,-2.350874 -0.0202,-3.22064 z"
             id="path321"
             sodipodi:nodetypes="cscsccc" />
          <path
             style="fill:#447821;fill-opacity:1;stroke-width:1.41624;stroke-linejoin:bevel;paint-order:fill markers stroke"
             d="m 262.98871,88.860603 c -0.79729,-0.0948 -1.01035,-1.332117 -0.69284,-2.218795 0.28198,-0.787252 0.90915,-1.494337 1.74939,-2.745466 0.17675,1.56253 1.10617,2.340831 0.99621,3.27266 -0.11841,1.003606 -1.06314,1.937696 -1.57656,1.803314 -0.095,-0.766061 0.0997,-1.915079 0.0997,-1.915079 0,0 -0.34271,1.339539 -0.57592,1.803359 z"
             id="path322"
             sodipodi:nodetypes="cscsccc" />
          <path
             style="fill:#447821;fill-opacity:1;stroke-width:1.39975;stroke-linejoin:bevel;paint-order:fill markers stroke"
             d="m 269.71075,91.597812 c -0.78721,-0.144824 -0.85128,-1.355701 -0.42616,-2.192082 0.37744,-0.742613 1.09111,-1.384646 2.0838,-2.538673 -0.0116,1.522978 0.82548,2.33766 0.60286,3.231551 -0.23979,0.962739 -1.29888,1.803178 -1.79698,1.638984 -0.003,-0.747221 0.33107,-1.845517 0.33107,-1.845517 0,0 -0.50503,1.272681 -0.79461,1.705729 z"
             id="path323"
             sodipodi:nodetypes="cscsccc" />
          <path
             style="fill:#447821;fill-opacity:1;stroke-width:1.85832;stroke-linejoin:bevel;paint-order:fill markers stroke"
             d="m 269.39748,95.437379 c 0.58709,0.805807 -0.41563,2.263403 -1.53392,2.890006 -0.99292,0.556343 -2.20265,0.723584 -4.114,1.259155 1.34474,-1.758645 1.2993,-3.38246 2.28432,-4.239836 1.06091,-0.923412 2.75776,-1.041162 3.06566,-0.447069 -0.65223,0.869589 -1.91709,1.874279 -1.91709,1.874279 0,0 1.57302,-1.068358 2.21503,-1.336535 z"
             id="path324"
             sodipodi:nodetypes="cscsccc" />
          <path
             style="fill:#447821;fill-opacity:1;stroke-width:2.06653;stroke-linejoin:bevel;paint-order:fill markers stroke"
             d="m 286.49221,94.513269 c -0.84727,-0.527498 -0.50311,-2.741534 0.26953,-4.11266 0.68602,-1.217393 1.72056,-2.139389 3.24952,-3.894373 -0.53789,2.753647 0.13541,4.510809 -0.42628,6.054289 -0.60496,1.662361 -2.10155,2.827181 -2.61265,2.36204 0.25443,-1.353832 1.01314,-3.229986 1.01314,-3.229986 0,0 -1.01405,2.134167 -1.49326,2.82069 z"
             id="path325"
             sodipodi:nodetypes="cscsccc" />
          <path
             style="fill:#447821;fill-opacity:1;stroke-width:2.43019;stroke-linejoin:bevel;paint-order:fill markers stroke"
             d="m 292.0868,63.792715 c -1.04307,-0.824926 -3.20279,0.194816 -4.22208,1.469275 -0.90499,1.131589 -1.29753,2.580382 -2.29502,4.832211 2.62363,-1.394499 4.87596,-1.116193 6.19858,-2.19684 1.42449,-1.163886 1.81259,-3.212105 1.02702,-3.668312 -1.29561,0.674085 -2.8601,2.074935 -2.8601,2.074935 0,0 1.69376,-1.767018 2.1516,-2.511269 z"
             id="path326"
             sodipodi:nodetypes="cscsccc" />
          <path
             style="fill:#447821;fill-opacity:1;stroke-width:1.98431;stroke-linejoin:bevel;paint-order:fill markers stroke"
             d="m 295.52552,65.295891 c -0.94871,-0.418054 -0.58516,-2.257383 0.26333,-3.408602 0.75339,-1.022141 1.89771,-1.807441 3.58538,-3.292673 -0.57454,2.29 0.19139,3.729236 -0.42054,5.018477 -0.65906,1.388542 -2.31598,2.38478 -2.8896,2.01102 0.27129,-1.125664 1.09975,-2.694429 1.09975,-2.694429 0,0 -1.11059,1.787787 -1.63832,2.366207 z"
             id="path327"
             sodipodi:nodetypes="cscsccc" />
          <path
             style="fill:#447821;fill-opacity:1;stroke-width:2.35822;stroke-linejoin:bevel;paint-order:fill markers stroke"
             d="m 297.66522,78.487642 c -0.71986,0.970669 -2.96761,0.279662 -4.24864,-0.831815 -1.13739,-0.98688 -1.89665,-2.363451 -3.4292,-4.445833 2.7738,0.993621 4.74545,0.385751 6.24861,1.260573 1.61895,0.94221 2.54057,2.912943 1.95262,3.480524 -1.36573,-0.476266 -3.17782,-1.632439 -3.17782,-1.632439 0,0 2.03134,1.499642 2.65443,2.16899 z"
             id="path328"
             sodipodi:nodetypes="cscsccc" />
          <path
             style="fill:#447821;fill-opacity:1;stroke-width:2.10411;stroke-linejoin:bevel;paint-order:fill markers stroke"
             d="m 295.92612,89.794237 c -0.65835,0.93913 -2.23945,-0.04528 -3.04905,-1.361551 -0.7188,-1.168715 -1.1071,-2.704259 -1.97966,-5.071067 1.93316,1.363063 3.47485,0.948975 4.47957,2.041619 1.0821,1.176811 1.51522,3.356214 1.00622,3.886237 -0.95347,-0.657487 -2.15173,-2.081567 -2.15173,-2.081567 0,0 1.31728,1.810628 1.69465,2.586329 z"
             id="path329"
             sodipodi:nodetypes="cscsccc" />
          <path
             style="fill:#447821;fill-opacity:1;stroke-width:2.2606;stroke-linejoin:bevel;paint-order:fill markers stroke"
             d="m 306.65928,73.320259 c -1.03836,0.628893 -2.50325,-0.85496 -2.9954,-2.365385 -0.43697,-1.341088 -0.38586,-2.901212 -0.61521,-5.405389 1.74044,1.961622 3.60513,2.138695 4.38767,3.513298 0.84281,1.480487 0.63763,3.651913 -0.1029,3.956947 -0.86312,-0.953836 -1.75798,-2.705015 -1.75798,-2.705015 0,0 0.90591,2.151635 1.08379,3.005554 z"
             id="path330"
             sodipodi:nodetypes="cscsccc" />
          <path
             style="fill:#447821;fill-opacity:1;stroke-width:3.01978;stroke-linejoin:bevel;paint-order:fill markers stroke"
             d="m 310.42524,69.982726 c -1.35932,0.723874 -2.98295,-1.643506 -3.40292,-3.885016 -0.37285,-1.990217 -0.11631,-4.211236 -0.0888,-7.828696 1.90438,3.096599 4.18344,3.66375 4.97859,5.760064 0.8564,2.257787 0.33389,5.326502 -0.61776,5.637704 -0.94678,-1.50855 -1.83384,-4.161963 -1.83384,-4.161963 0,0 0.85103,3.227585 0.96466,4.477907 z"
             id="path331"
             sodipodi:nodetypes="cscsccc" />
          <path
             style="fill:#447821;fill-opacity:1;stroke-width:2.632;stroke-linejoin:bevel;paint-order:fill markers stroke"
             d="m 314.63407,66.940235 c -1.36224,0.27479 -2.34825,-1.97629 -2.28014,-3.85871 0.0605,-1.671378 0.73105,-3.386699 1.47333,-6.267468 1.09307,2.895595 3.02377,3.85605 3.32082,5.7062 0.31992,1.992658 -0.75722,4.325218 -1.67211,4.361518 -0.54957,-1.41487 -0.8185,-3.73009 -0.8185,-3.73009 0,0 0.12274,2.76541 -0.0234,3.78855 z"
             id="path332"
             sodipodi:nodetypes="cscsccc" />
          <path
             style="fill:#447821;fill-opacity:1;stroke-width:2.632;stroke-linejoin:bevel;paint-order:fill markers stroke"
             d="m 335.78919,62.615874 c 1.36224,0.27479 2.34825,-1.97629 2.28014,-3.85871 -0.0605,-1.671378 -0.73105,-3.386699 -1.47333,-6.267468 -1.09307,2.895595 -3.02377,3.85605 -3.32082,5.7062 -0.31992,1.992658 0.75722,4.325218 1.67211,4.361518 0.54957,-1.41487 0.8185,-3.73009 0.8185,-3.73009 0,0 -0.12274,2.76541 0.0234,3.78855 z"
             id="path333"
             sodipodi:nodetypes="cscsccc" />
          <path
             style="fill:#447821;fill-opacity:1;stroke-width:2.04757;stroke-linejoin:bevel;paint-order:fill markers stroke"
             d="m 340.42936,64.104249 c -1.08324,0.105509 -1.67453,-1.701545 -1.47333,-3.143372 0.17866,-1.280178 0.83621,-2.546786 1.64137,-4.703766 0.624,2.310836 2.05306,3.199047 2.13898,4.64441 0.0925,1.55669 -0.93046,3.266242 -1.64631,3.223135 -0.31696,-1.130341 -0.34437,-2.931044 -0.34437,-2.931044 0,0 -0.12194,2.135441 -0.31634,2.910637 z"
             id="path334"
             sodipodi:nodetypes="cscsccc" />
          <path
             style="fill:#447821;fill-opacity:1;stroke-width:2.20267;stroke-linejoin:bevel;paint-order:fill markers stroke"
             d="m 310.65167,74.966181 c -1.01835,0.430786 -0.75219,2.613501 0.064,4.018965 0.72467,1.247882 1.87298,2.24243 3.54624,4.09323 -0.4589,-2.72524 0.43162,-4.366644 -0.12849,-5.919191 -0.60327,-1.672127 -2.2747,-2.946815 -2.89793,-2.544286 0.21395,1.338902 0.98321,3.233373 0.98321,3.233373 0,0 -1.05083,-2.169504 -1.56698,-2.882091 z"
             id="path335"
             sodipodi:nodetypes="cscsccc" />
          <path
             style="fill:#447821;fill-opacity:1;stroke-width:1.7165;stroke-linejoin:bevel;paint-order:fill markers stroke"
             d="m 319.00669,69.003265 c -0.91406,0.02258 -1.2312,1.583332 -0.92275,2.76019 0.27388,1.044914 0.946,2.029844 1.82807,3.739145 0.29531,-1.982439 1.40101,-2.865392 1.33176,-4.074391 -0.0746,-1.30212 -1.09478,-2.617709 -1.68782,-2.509097 -0.15424,0.9709 -10e-4,2.469029 -10e-4,2.469029 0,0 -0.30995,-1.760909 -0.54773,-2.384874 z"
             id="path336"
             sodipodi:nodetypes="cscsccc" />
          <path
             style="fill:#447821;fill-opacity:1;stroke-width:2.632;stroke-linejoin:bevel;paint-order:fill markers stroke"
             d="m 331.70357,65.109159 c -1.36224,-0.27479 -2.34825,1.97629 -2.28014,3.85871 0.0605,1.671378 0.73105,3.386699 1.47333,6.267468 1.09307,-2.895595 3.02377,-3.85605 3.32082,-5.7062 0.31992,-1.992658 -0.75722,-4.325218 -1.67211,-4.361518 -0.54957,1.41487 -0.8185,3.73009 -0.8185,3.73009 0,0 0.12274,-2.76541 -0.0234,-3.78855 z"
             id="path337"
             sodipodi:nodetypes="cscsccc" />
          <path
             style="fill:#447821;fill-opacity:1;stroke-width:2.06851;stroke-linejoin:bevel;paint-order:fill markers stroke"
             d="m 309.63695,89.256648 c -1.05497,0.649654 -2.45773,-0.440491 -2.89249,-1.663125 -0.38596,-1.085583 -0.2789,-2.411686 -0.41654,-4.50506 1.65945,1.46333 3.50682,1.402328 4.23516,2.477178 0.78445,1.157642 0.50212,3.018542 -0.24508,3.360433 -0.82365,-0.709634 -1.65007,-2.090482 -1.65007,-2.090482 0,0 0.82296,1.718505 0.96905,2.42104 z"
             id="path338"
             sodipodi:nodetypes="cscsccc" />
          <path
             style="fill:#447821;fill-opacity:1;stroke-width:2.22894;stroke-linejoin:bevel;paint-order:fill markers stroke"
             d="m 324.37399,81.58119 c -1.03415,0.259593 -1.78268,-1.866997 -1.73098,-3.645315 0.046,-1.578947 0.55498,-3.199408 1.11849,-5.920864 0.82981,2.735462 2.29551,3.642802 2.52102,5.390635 0.24286,1.88246 -0.57486,4.086024 -1.2694,4.120317 -0.4172,-1.336625 -0.62136,-3.523808 -0.62136,-3.523808 0,0 0.0932,2.612477 -0.0178,3.579035 z"
             id="path339"
             sodipodi:nodetypes="cscsccc" />
          <path
             style="fill:#447821;fill-opacity:1;stroke-width:1.59887;stroke-linejoin:bevel;paint-order:fill markers stroke"
             d="m 368.38959,71.578915 c -0.7848,0.176013 -1.35286,-1.265885 -1.31362,-2.471643 0.0349,-1.070579 0.42117,-2.169304 0.84881,-4.014541 0.62973,1.854734 1.74203,2.46994 1.91317,3.655028 0.18431,1.27637 -0.43625,2.770459 -0.96333,2.793711 -0.31661,-0.906276 -0.47155,-2.389258 -0.47155,-2.389258 0,0 0.0707,1.771345 -0.0135,2.426703 z"
             id="path340"
             sodipodi:nodetypes="cscsccc" />
          <path
             style="fill:#447821;fill-opacity:1;stroke-width:2.632;stroke-linejoin:bevel;paint-order:fill markers stroke"
             d="m 374.697,71.99163 c 1.36224,0.27479 2.34825,-1.97629 2.28014,-3.85871 -0.0605,-1.671378 -0.73105,-3.386699 -1.47333,-6.267468 -1.09307,2.895595 -3.02377,3.85605 -3.32082,5.7062 -0.31992,1.992658 0.75722,4.325218 1.67211,4.361518 0.54957,-1.41487 0.8185,-3.73009 0.8185,-3.73009 0,0 -0.12274,2.76541 0.0234,3.78855 z"
             id="path341"
             sodipodi:nodetypes="cscsccc" />
          <path
             style="fill:#447821;fill-opacity:1;stroke-width:2.85979;stroke-linejoin:bevel;paint-order:fill markers stroke"
             d="m 380.64501,72.333214 c -1.48316,0.551402 -2.38453,-1.770104 -2.17906,-3.872781 0.18247,-1.866948 1.02357,-3.892975 2.02364,-7.226159 0.97112,3.017865 2.97833,3.7354 3.16753,5.736231 0.20375,2.154948 -1.11763,4.939898 -2.10331,5.145597 -0.49114,-1.471817 -0.61743,-3.994181 -0.61743,-3.994181 0,0 -0.0625,3.048717 -0.29137,4.211293 z"
             id="path342"
             sodipodi:nodetypes="cscsccc" />
          <path
             style="fill:#447821;fill-opacity:1;stroke-width:4.44171;stroke-linejoin:bevel;paint-order:fill markers stroke"
             d="m 392.57999,73.665619 c -2.57762,0.01412 -3.85585,-3.666318 -3.27888,-6.482013 0.51234,-2.500012 2.16004,-4.887167 4.21948,-9.008903 1.32107,4.682758 4.65064,6.696267 4.75468,9.570526 0.11206,3.095647 -2.43334,6.293274 -4.12894,6.079431 -0.67403,-2.292669 -0.61472,-5.859259 -0.61472,-5.859259 0,0 -0.43682,4.20185 -0.95163,5.700216 z"
             id="path343"
             sodipodi:nodetypes="cscsccc" />
          <path
             style="fill:#447821;fill-opacity:1;stroke-width:2.632;stroke-linejoin:bevel;paint-order:fill markers stroke"
             d="m 420.24563,77.463974 c -1.36224,0.27479 -2.34825,-1.97629 -2.28014,-3.85871 0.0605,-1.671378 0.73105,-3.386699 1.47333,-6.267468 1.09307,2.895595 3.02377,3.85605 3.32082,5.7062 0.31992,1.992658 -0.75722,4.325218 -1.67211,4.361518 -0.54957,-1.41487 -0.8185,-3.73009 -0.8185,-3.73009 0,0 0.12274,2.76541 -0.0234,3.78855 z"
             id="path344"
             sodipodi:nodetypes="cscsccc" />
          <path
             style="fill:#447821;fill-opacity:1;stroke-width:2.28288;stroke-linejoin:bevel;paint-order:fill markers stroke"
             d="m 426.16113,77.372964 c -1.15227,0.244397 -1.98629,-1.757704 -1.92868,-3.43192 0.0512,-1.486517 0.61836,-3.012116 1.24623,-5.57426 0.92458,2.57533 2.55768,3.429555 2.80895,5.07507 0.2706,1.772262 -0.64051,3.846831 -1.41438,3.879116 -0.46485,-1.25838 -0.69233,-3.317526 -0.69233,-3.317526 0,0 0.10382,2.459544 -0.0198,3.36952 z"
             id="path345"
             sodipodi:nodetypes="cscsccc" />
          <path
             style="fill:#447821;fill-opacity:1;stroke-width:1.93554;stroke-linejoin:bevel;paint-order:fill markers stroke"
             d="m 443.82627,76.814468 c 0.91107,-0.346578 2.56523,1.005212 3.27837,2.244936 0.63317,1.100738 0.82619,2.30493 1.43858,4.280283 -1.9962,-1.760287 -3.83553,-2.152128 -4.8097,-3.326023 -1.0492,-1.264315 -1.1876,-2.922066 -0.51554,-3.057853 0.98702,0.858234 2.1289,2.339797 2.1289,2.339797 0,0 -1.21492,-1.793958 -1.52061,-2.48114 z"
             id="path346"
             sodipodi:nodetypes="cscsccc" />
          <path
             style="fill:#447821;fill-opacity:1;stroke-width:2.55262;stroke-linejoin:bevel;paint-order:fill markers stroke"
             d="m 462.81122,67.991701 c -1.49741,-0.171733 -1.40641,-2.257696 -0.43541,-3.745325 0.86214,-1.320843 2.35694,-2.50143 4.48254,-4.594539 -0.29278,2.632795 1.18219,3.957054 0.59274,5.523858 -0.63487,1.68748 -2.83325,3.245356 -3.76783,3.011315 0.12754,-1.290907 0.9682,-3.221999 0.9682,-3.221999 0,0 -1.20309,2.24951 -1.84024,3.02669 z"
             id="path347"
             sodipodi:nodetypes="cscsccc" />
          <path
             style="fill:#447821;fill-opacity:1;stroke-width:2.632;stroke-linejoin:bevel;paint-order:fill markers stroke"
             d="m 453.01429,71.285497 c -1.33606,0.38229 -2.49803,-1.783215 -2.57989,-3.665088 -0.0727,-1.670893 0.45931,-3.434122 0.97007,-6.364812 1.31996,2.79946 3.32094,3.603277 3.76424,5.423932 0.47743,1.960892 -0.41074,4.371749 -1.31984,4.480717 -0.66038,-1.366666 -1.11265,-3.653153 -1.11265,-3.653153 0,0 0.34235,2.74688 0.27807,3.778404 z"
             id="path348"
             sodipodi:nodetypes="cscsccc" />
          <path
             style="fill:#447821;fill-opacity:1;stroke-width:1.40484;stroke-linejoin:bevel;paint-order:fill markers stroke"
             d="m 382.78032,77.223347 c -0.73122,-0.145844 -1.26049,1.048908 -1.22393,2.047994 0.0325,0.887077 0.39241,1.797477 0.79085,3.326434 0.58674,-1.536825 1.62309,-2.046583 1.78254,-3.028543 0.17173,-1.057595 -0.40646,-2.295592 -0.89755,-2.314858 -0.29499,0.750937 -0.43934,1.979731 -0.43934,1.979731 0,0 0.0659,-1.467731 -0.0126,-2.010758 z"
             id="path349"
             sodipodi:nodetypes="cscsccc" />
          <path
             style="fill:#447821;fill-opacity:1;stroke-width:1.60664;stroke-linejoin:bevel;paint-order:fill markers stroke"
             d="m 392.92193,85.634944 c 0.84258,0.165543 1.45244,-1.190592 1.41032,-2.324633 -0.0374,-1.006901 -0.45217,-2.040275 -0.91129,-3.775759 -0.67609,1.744416 -1.87027,2.32303 -2.054,3.43763 -0.19788,1.200453 0.46836,2.605674 1.03423,2.627543 0.33993,-0.852371 0.50627,-2.247147 0.50627,-2.247147 0,0 -0.0759,1.665987 0.0144,2.282366 z"
             id="path350"
             sodipodi:nodetypes="cscsccc" />
          <path
             style="fill:#447821;fill-opacity:1;stroke-width:1.54746;stroke-linejoin:bevel;paint-order:fill markers stroke"
             d="m 403.37824,80.364958 c -0.89825,-0.144052 -1.54843,1.036027 -1.50351,2.022847 0.0399,0.876185 0.48205,1.775404 0.9715,3.285585 0.72076,-1.517953 1.99386,-2.021452 2.18974,-2.991353 0.21094,-1.044608 -0.49931,-2.267403 -1.10259,-2.286433 -0.36238,0.741715 -0.53971,1.955421 -0.53971,1.955421 0,0 0.0809,-1.449707 -0.0155,-1.986067 z"
             id="path351"
             sodipodi:nodetypes="cscsccc" />
          <path
             style="fill:#447821;fill-opacity:1;stroke-width:2.14376;stroke-linejoin:bevel;paint-order:fill markers stroke"
             d="m 399.2513,90.077803 c -1.45372,-0.170827 -2.50594,1.228585 -2.43326,2.398814 0.0646,1.039033 0.78014,2.105384 1.57227,3.896248 1.16648,-1.800081 3.22683,-2.39716 3.54382,-3.547328 0.34141,-1.238761 -0.80807,-2.688825 -1.78439,-2.711391 -0.58648,0.879571 -0.87347,2.318856 -0.87347,2.318856 0,0 0.13099,-1.719151 -0.0249,-2.355199 z"
             id="path352"
             sodipodi:nodetypes="cscsccc" />
          <path
             style="fill:#447821;fill-opacity:1;stroke-width:2.632;stroke-linejoin:bevel;paint-order:fill markers stroke"
             d="m 375.76882,87.309832 c 1.37873,-0.174105 2.19692,2.143249 1.99089,4.015599 -0.18296,1.662435 -0.97756,3.323936 -1.92919,6.142482 -0.87768,-2.967987 -2.73271,-4.067505 -2.89322,-5.934463 -0.17286,-2.010759 1.07251,-4.258005 1.9876,-4.227084 0.44428,1.451377 0.54262,3.780089 0.54262,3.780089 0,0 0.0805,-2.766963 0.3013,-3.776623 z"
             id="path353"
             sodipodi:nodetypes="cscsccc" />
          <path
             style="fill:#447821;fill-opacity:1;stroke-width:2.632;stroke-linejoin:bevel;paint-order:fill markers stroke"
             d="m 354.15297,86.116345 c -1.31919,-0.27479 -2.65792,1.97629 -2.88476,3.85871 -0.20139,1.671378 0.20039,3.386699 0.49128,6.267468 1.54678,-2.895595 3.62798,-3.85605 4.21492,-5.7062 0.63215,-1.992658 -0.0795,-4.325218 -0.9887,-4.361518 -0.77127,1.41487 -1.40297,3.73009 -1.40297,3.73009 0,0 0.55605,-2.76541 0.57023,-3.78855 z"
             id="path354"
             sodipodi:nodetypes="cscsccc" />
          <path
             style="fill:#447821;fill-opacity:1;stroke-width:2.632;stroke-linejoin:bevel;paint-order:fill markers stroke"
             d="m 341.95319,86.472911 c -1.38028,-0.161329 -2.17698,2.163504 -1.95361,4.033865 0.19835,1.660669 1.00829,3.314741 1.98599,6.124352 0.85016,-2.975988 2.69492,-4.092638 2.83814,-5.961003 0.15423,-2.012274 -1.1119,-4.24789 -2.02667,-4.208495 -0.43082,1.45543 -0.50759,3.784952 -0.50759,3.784952 0,0 -0.1061,-2.766099 -0.33626,-3.773671 z"
             id="path355"
             sodipodi:nodetypes="cscsccc" />
          <path
             style="fill:#447821;fill-opacity:1;stroke-width:2.632;stroke-linejoin:bevel;paint-order:fill markers stroke"
             d="m 325.12557,88.839335 c -1.36479,0.261793 -1.42446,2.718624 -0.64825,4.434913 0.68921,1.523861 1.95964,2.857267 3.738,5.242064 -0.0854,-3.09386 1.33745,-4.714183 0.91141,-6.538952 -0.45887,-1.965318 -2.33943,-3.715908 -3.19987,-3.402886 0.0274,1.517607 0.6557,3.762123 0.6557,3.762123 0,0 -0.93411,-2.60576 -1.45699,-3.497262 z"
             id="path356"
             sodipodi:nodetypes="cscsccc" />
          <path
             style="fill:#447821;fill-opacity:1;stroke-width:2.19326;stroke-linejoin:bevel;paint-order:fill markers stroke"
             d="m 434.90452,88.391248 c -1.19521,-0.217481 -2.06032,1.56412 -2.00056,3.053948 0.0531,1.3228 0.64141,2.680378 1.29268,4.960341 0.95904,-2.291697 2.653,-3.051842 2.91362,-4.51613 0.2807,-1.577074 -0.66437,-3.423162 -1.46708,-3.451891 -0.48218,1.119788 -0.71813,2.952152 -0.71813,2.952152 0,0 0.10769,-2.188663 -0.0205,-2.99842 z"
             id="path357"
             sodipodi:nodetypes="cscsccc" />
          <path
             style="fill:#447821;fill-opacity:1;stroke-width:2.632;stroke-linejoin:bevel;paint-order:fill markers stroke"
             d="m 446.802,89.255921 c -1.36224,-0.27479 -2.34825,1.97629 -2.28014,3.85871 0.0605,1.671378 0.73105,3.386699 1.47333,6.267468 1.09307,-2.895595 3.02377,-3.85605 3.32082,-5.7062 0.31992,-1.992658 -0.75722,-4.325218 -1.67211,-4.361518 -0.54957,1.41487 -0.8185,3.73009 -0.8185,3.73009 0,0 0.12274,-2.76541 -0.0234,-3.78855 z"
             id="path358"
             sodipodi:nodetypes="cscsccc" />
          <path
             style="fill:#447821;fill-opacity:1;stroke-width:2.48742;stroke-linejoin:bevel;paint-order:fill markers stroke"
             d="m 459.38496,89.379389 c -1.27881,0.08518 -1.94479,2.460515 -1.68282,4.220975 0.2326,1.563093 1.02957,3.013303 2.01582,5.545985 0.69589,-3.011079 2.36529,-4.406624 2.44172,-6.229003 0.0823,-1.962744 -1.15303,-3.892989 -1.99618,-3.695776 -0.35422,1.475213 -0.35557,3.729674 -0.35557,3.729674 0,0 -0.18047,-2.642616 -0.42297,-3.571855 z"
             id="path359"
             sodipodi:nodetypes="cscsccc" />
          <path
             style="fill:#447821;fill-opacity:1;stroke-width:2.632;stroke-linejoin:bevel;paint-order:fill markers stroke"
             d="m 466.7712,84.698987 c -1.36224,0.27479 -2.34825,-1.97629 -2.28014,-3.85871 0.0605,-1.671378 0.73105,-3.386699 1.47333,-6.267468 1.09307,2.895595 3.02377,3.85605 3.32082,5.7062 0.31992,1.992658 -0.75722,4.325218 -1.67211,4.361518 -0.54957,-1.41487 -0.8185,-3.73009 -0.8185,-3.73009 0,0 0.12274,2.76541 -0.0234,3.78855 z"
             id="path360"
             sodipodi:nodetypes="cscsccc" />
          <path
             style="fill:#447821;fill-opacity:1;stroke-width:2.33658;stroke-linejoin:bevel;paint-order:fill markers stroke"
             d="m 483.53303,86.49675 c -1.28049,-0.08262 -1.9155,1.930556 -1.62888,3.515812 0.25449,1.407525 1.073,2.785108 2.09604,5.140905 0.65629,-2.570287 2.31032,-3.595383 2.36204,-5.193514 0.0557,-1.721225 -1.20878,-3.576327 -2.0511,-3.506374 -0.33485,1.257617 -0.30541,3.246157 -0.30541,3.246157 0,0 -0.21697,-2.353369 -0.47269,-3.202986 z"
             id="path361"
             sodipodi:nodetypes="cscsccc" />
          <path
             style="fill:#447821;fill-opacity:1;stroke-width:2.68712;stroke-linejoin:bevel;paint-order:fill markers stroke"
             d="m 494.21098,84.89953 c 1.46723,-0.265925 2.52923,1.912536 2.45587,3.73423 -0.0652,1.61746 -0.78739,3.277445 -1.58688,6.065282 -1.17731,-2.802184 -3.25681,-3.731656 -3.57676,-5.52212 -0.34457,-1.928376 0.81558,-4.185689 1.80098,-4.220818 0.59193,1.369227 0.88159,3.609759 0.88159,3.609759 0,0 -0.1322,-2.676199 0.0252,-3.666333 z"
             id="path362"
             sodipodi:nodetypes="cscsccc" />
          <path
             style="fill:#447821;fill-opacity:1;stroke-width:2.632;stroke-linejoin:bevel;paint-order:fill markers stroke"
             d="m 503.16106,79.451662 c 1.3744,-0.20548 1.53499,-2.657782 0.82997,-4.404522 -0.62599,-1.550901 -1.84055,-2.935394 -3.51939,-5.391266 -0.0418,3.094758 -1.53007,4.655231 -1.17939,6.495968 0.37771,1.982517 2.18473,3.808918 3.05731,3.531525 0.035,-1.517453 -0.50052,-3.785894 -0.50052,-3.785894 0,0 0.82623,2.641951 1.31202,3.554189 z"
             id="path363"
             sodipodi:nodetypes="cscsccc" />
          <path
             style="fill:#447821;fill-opacity:1;stroke-width:2.632;stroke-linejoin:bevel;paint-order:fill markers stroke"
             d="m 527.23782,76.301168 c -0.55982,1.271928 1.42829,2.716613 3.28172,3.052712 1.64563,0.298388 3.46468,0.01025 6.43755,-0.09869 -2.59479,-1.687116 -3.12006,-3.778563 -4.86385,-4.464464 -1.87812,-0.73873 -4.38709,-0.185425 -4.61823,0.700526 1.26457,0.839475 3.4687,1.597386 3.4687,1.597386 0,0 -2.67516,-0.711394 -3.70589,-0.787481 z"
             id="path364"
             sodipodi:nodetypes="cscsccc" />
        </g>
        <text
           xml:space="preserve"
           style="font-weight:bold;font-size:37.0417px;line-height:0;font-family:Montserrat;-inkscape-font-specification:'Montserrat Bold';letter-spacing:2.98979px;word-spacing:11.9062px;display:inline;fill:#2b1100;fill-opacity:1;stroke-width:2.632;stroke-linejoin:bevel;paint-order:fill markers stroke"
           x="365.31335"
           y="184.50447"
           id="text364"
           inkscape:label="number"><tspan
             sodipodi:role="line"
             id="tspan364"
             style="font-size:37.0417px;line-height:0;text-align:center;letter-spacing:2.98979px;word-spacing:11.9062px;text-anchor:middle;fill:#2b1100;stroke-width:2.632"
             x="366.80826"
             y="184.50447"
             dx="0 0 0 0 0 0 0 0 0 0 0">064 95 88 494</tspan></text>
        <path
           d="m 205.82535,29.436811 c 1.58932,-1.162347 2.28338,-2.87924 1.8214,-4.901213 -0.6901,-3.02043 -3.41659,-4.373641 -7.10502,-3.491622 -1.98696,0.475146 -3.97161,0.960397 -5.95383,1.455754 l 3.354,13.416042 c 1.03541,-0.258929 2.07152,-0.515034 3.1083,-0.768315 l -0.91394,-3.742215 c 0.9083,-0.221851 1.81711,-0.441548 2.72642,-0.659093 0.0516,-0.01234 0.10318,-0.02468 0.15478,-0.03701 1.16907,1.040819 2.33295,2.084927 3.49161,3.132287 1.11608,-0.261406 2.23291,-0.519554 3.35047,-0.774444 -1.33773,-1.214419 -2.68247,-2.424496 -4.03419,-3.630174 z m -1.38351,-4.15979 c 0.3427,1.462872 -0.42552,2.572378 -2.3469,3.032609 -0.85488,0.204769 -1.70931,0.411433 -2.56329,0.619992 l -1.14361,-4.682567 c 0.86091,-0.210202 1.72227,-0.418495 2.58407,-0.624878 1.94111,-0.464853 3.12308,0.175113 3.46973,1.654844 z m 9.22723,-4.10598 c -1.69271,0.367144 -3.3022,1.189516 -4.27666,2.259842 0.52328,0.617877 1.04532,1.236385 1.56612,1.85552 0.62862,-0.76797 1.70155,-1.38931 2.81853,-1.632424 1.64638,-0.358337 2.5902,0.230821 2.86612,1.524128 -0.80728,0.172225 -1.61422,0.34612 -2.4208,0.521688 -3.20452,0.697524 -4.21596,2.274311 -3.80361,4.100723 0.40487,1.79331 2.15804,2.810013 4.58568,2.278912 1.52424,-0.33346 2.49835,-1.066153 2.8586,-2.132685 l 0.27568,1.29433 c 0.94065,-0.200395 1.88179,-0.398497 2.8234,-0.594306 l -1.23429,-5.936691 c -0.65478,-3.149395 -2.82683,-4.240037 -6.05877,-3.539037 z m 1.64771,8.717557 c -1.06485,0.231488 -1.81486,-0.128121 -1.98075,-0.880665 -0.15287,-0.693485 0.17836,-1.315232 1.59942,-1.623728 0.69399,-0.150657 1.38824,-0.300074 2.08275,-0.448249 l 0.22666,1.062435 c -0.14791,1.02106 -0.92122,1.671326 -1.92808,1.890207 z m 11.91273,-0.348888 c 3.11548,-0.61308 4.66908,-2.323799 4.30373,-4.267194 -0.77358,-4.114904 -6.81414,-1.155143 -7.16913,-2.937189 -0.1079,-0.541653 0.39592,-1.087155 1.77339,-1.35677 0.96375,-0.188635 2.04494,-0.196494 3.19802,0.187183 0.20414,-0.782748 0.40958,-1.565433 0.61632,-2.348053 -1.11815,-0.392905 -2.79902,-0.412613 -4.26204,-0.126273 -3.10561,0.607825 -4.62751,2.378232 -4.22461,4.349729 0.85026,4.160475 6.84541,1.156649 7.17497,2.863137 0.11251,0.582577 -0.34307,1.050418 -1.74379,1.325747 -1.28297,0.252185 -2.78606,0.13003 -3.84141,-0.279834 -0.1908,0.791149 -0.38029,1.582342 -0.56846,2.373574 1.09886,0.439296 2.98137,0.562607 4.74301,0.215943 z m 9.10099,-12.832363 c -1.70515,0.302223 -3.34455,1.062404 -4.359,2.094534 0.49918,0.637331 0.99711,1.275245 1.49379,1.913737 0.6574,-0.743271 1.75309,-1.323093 2.87834,-1.523354 1.65859,-0.29518 2.5791,0.329453 2.80544,1.632191 -0.81316,0.141281 -1.62603,0.284233 -2.43861,0.428856 -3.22831,0.574574 -4.29918,2.111232 -3.95702,3.951813 0.33595,1.807183 2.04878,2.890078 4.49482,2.452151 1.53576,-0.274954 2.53707,-0.969849 2.93774,-2.021725 l 0.22607,1.30374 c 0.94756,-0.164333 1.89552,-0.326373 2.84386,-0.48612 l -1.00698,-5.978729 c -0.53421,-3.171728 -2.66279,-4.344136 -5.91845,-3.767094 z m 1.31352,8.772923 c -1.07283,0.190632 -1.80849,-0.197321 -1.94549,-0.955542 -0.12625,-0.698726 0.22846,-1.307262 1.66008,-1.561241 0.69915,-0.124034 1.39852,-0.246827 2.09811,-0.36838 l 0.18593,1.070173 c -0.18674,1.014545 -0.98423,1.634741 -1.99863,1.81499 z m 14.68011,-10.090309 c -0.90335,-0.743012 -2.08005,-0.984026 -3.39231,-0.779768 -3.02145,0.470299 -4.99665,2.960559 -4.45398,6.253698 0.54267,3.293141 3.16967,5.018723 6.13682,4.556786 1.40517,-0.218763 2.44972,-0.835999 3.07581,-1.868549 l 0.18161,1.210853 c 0.97061,-0.145595 1.94156,-0.288802 2.91287,-0.429621 L 254.6827,9.8317675 c -1.04182,0.1510089 -2.08325,0.3046985 -3.1243,0.4610685 z m -1.56897,7.450825 c -1.52926,0.236674 -2.87877,-0.667233 -3.16792,-2.480952 -0.28916,-1.813718 0.72365,-3.095901 2.2679,-3.334869 1.52444,-0.235904 2.87743,0.680066 3.15009,2.49631 0.27267,1.816244 -0.74042,3.085873 -2.25007,3.319511 z m 13.86978,-10.464809 c -1.45697,0.188166 -2.64827,0.845309 -3.36206,1.858513 l -0.16659,-1.23292 c -0.98985,0.13374 -1.97938,0.269909 -2.96857,0.408508 l 1.47432,10.52169 c 1.01763,-0.142604 2.03562,-0.28259 3.05397,-0.41996 l -0.70218,-5.205824 c -0.26134,-1.937505 0.68894,-2.983215 2.17841,-3.177679 1.37185,-0.179106 2.26472,0.505351 2.48098,2.209283 l 0.70612,5.563763 c 1.0194,-0.129386 2.03914,-0.256154 3.05919,-0.380306 l -0.73482,-6.037767 c -0.39127,-3.214914 -2.48509,-4.434524 -5.01877,-4.107301 z m 8.67547,-2.3892181 c 1.16048,-0.1327591 1.86019,-0.9647729 1.7467,-1.9855621 -0.10471,-0.9418768 -0.968,-1.5620293 -2.13726,-1.428269 -1.1693,0.1337652 -1.86557,0.9720825 -1.75255,1.93289 0.11308,0.9612117 0.98263,1.6137012 2.14311,1.4809411 z m 2.90756,11.8536441 -1.18055,-10.558456 c -1.03925,0.116196 -2.07822,0.235055 -3.11687,0.356576 l 1.23465,10.552295 c 1.02062,-0.119421 2.04155,-0.236226 3.06277,-0.350415 z m 14.45277,-1.439766 c -1.77896,-1.892779 -3.5736,-3.777739 -5.38388,-5.654684 1.34104,-1.635751 2.69358,-3.267099 4.05756,-4.8939245 -1.24199,0.1094451 -2.48365,0.2226745 -3.72496,0.3396885 -1.38815,1.558985 -2.76519,3.122661 -4.13108,4.690911 l -0.84013,-8.2513349 c -1.04718,0.1066166 -2.09409,0.2159129 -3.14072,0.3278889 l 1.55884,14.569593 c 1.02176,-0.109324 2.0438,-0.216032 3.0661,-0.320124 l -0.27404,-2.691507 c 0.44436,-0.53487 0.88998,-1.069254 1.33685,-1.603147 1.25932,1.270657 2.51125,2.545206 3.75576,3.823583 1.23955,-0.116154 2.47945,-0.228469 3.7197,-0.336943 z m 14.97041,-9.906695 -0.11406,-1.8527642 c -3.10437,0.1911131 -6.2073,0.405772 -9.30844,0.6439792 l 0.18149,2.362746 c 1.77761,-0.136543 3.55581,-0.265319 5.33454,-0.386328 -1.6806,2.252 -3.34159,4.510879 -4.98287,6.776384 l 0.14259,1.850786 c 3.15254,-0.242881 6.30701,-0.460997 9.46302,-0.654349 l -0.14491,-2.365274 c -1.86802,0.114445 -3.73551,0.237532 -5.60239,0.36926 1.65739,-2.254986 3.33442,-4.503218 5.03103,-6.74444 z m 3.55798,-3.5511554 c 1.16618,-0.064641 1.91332,-0.8543091 1.85973,-1.8799848 -0.0494,-0.9463877 -0.87494,-1.6159588 -2.0499,-1.5508299 -1.17501,0.065132 -1.91908,0.8612603 -1.86248,1.8270283 0.0566,0.9661723 0.88645,1.6684286 2.05265,1.6037864 z m 2.20914,12.0033774 -0.56094,-10.6093914 c -1.04423,0.055212 -2.08832,0.1130847 -3.13225,0.1736192 l 0.61502,10.6063852 c 1.02591,-0.05949 2.05197,-0.116358 3.07817,-0.170613 z M 327.591,7.5215133 c -1.62974,0.041718 -3.0176,0.735853 -3.84511,1.8491152 -0.79907,-1.1403108 -2.10531,-1.6698848 -3.61355,-1.6129941 -1.38743,0.052334 -2.57396,0.5762162 -3.33681,1.5185469 l -0.0529,-1.2232101 c -0.99783,0.043153 -1.99555,0.088734 -2.99316,0.1367434 l 0.51067,10.6119394 c 1.02645,-0.04939 2.05303,-0.09617 3.07972,-0.140334 l -0.22915,-5.326937 c -0.0815,-1.894022 0.86074,-2.824791 2.24157,-2.878862 1.30219,-0.05099 2.06965,0.713292 2.13114,2.429816 l 0.20077,5.604744 c 1.02698,-0.03679 2.05406,-0.07096 3.08123,-0.102514 l -0.16374,-5.329363 c -0.0582,-1.894884 0.89535,-2.814065 2.29676,-2.851676 1.26272,-0.03389 2.06071,0.738608 2.10108,2.455862 l 0.13179,5.606807 c 1.02737,-0.02415 2.0548,-0.04568 3.08228,-0.0646 l -0.11198,-6.081276 C 332.04198,8.8852413 330.1648,7.4556293 327.591,7.5215133 Z m 15.96846,1.812423 5.8e-4,-1.8562958 c -3.11024,-9.665e-4 -6.22047,0.021603 -9.33035,0.06771 l 0.0351,2.3694716 c 1.78265,-0.026428 3.56541,-0.045092 5.34822,-0.055992 -1.81651,2.1439096 -3.61391,4.2958736 -5.39213,6.4556376 l 0.0279,1.85608 c 3.16166,-0.04758 6.3237,-0.07041 9.48574,-0.06849 l 0.001,-2.36974 c -1.87158,-0.0011 -3.74315,0.0064 -5.61465,0.0225 1.79359,-2.148309 3.60631,-4.288689 5.43809,-6.4208847 z m 12.53692,3.6279037 c 0.0711,-3.4156486 -2.33867,-5.5628845 -5.51654,-5.6000475 -3.29855,-0.038574 -5.77802,2.2502573 -5.78544,5.4296505 -0.007,3.16188 2.38921,5.469434 6.05261,5.514678 1.91578,0.02366 3.40657,-0.541492 4.41929,-1.647695 -0.53648,-0.603062 -1.07456,-1.205413 -1.61427,-1.807046 -0.74705,0.678887 -1.56435,1.001542 -2.69518,0.987429 -1.62514,-0.02028 -2.75022,-0.837609 -3.03903,-2.163162 2.70074,0.02014 5.40134,0.0582 8.10157,0.114184 0.0253,-0.256047 0.0721,-0.591277 0.077,-0.827991 -10e-6,0 -2e-5,0 -3e-5,0 z m -5.52375,-3.2697223 c 1.40259,0.016449 2.41129,0.9019863 2.60936,2.2481913 -1.76347,-0.02828 -3.52706,-0.04893 -5.2907,-0.06196 0.22966,-1.360785 1.25724,-2.2029276 2.68134,-2.1862263 z m 10.55064,8.6700773 0.42941,-14.6466804 c -1.05207,-0.030842 -2.10422,-0.059007 -3.15643,-0.084494 l -0.35487,14.6486624 c 1.02736,0.02489 2.05466,0.05239 3.08189,0.08251 z m 13.53962,-4.73108 c 0.17498,-3.411923 -2.16848,-5.6314561 -5.34377,-5.7652111 -3.29589,-0.1388346 -5.84381,2.0735879 -5.94787,5.2513051 -0.10349,3.160215 2.22188,5.539556 5.8822,5.696147 1.91417,0.08189 3.42144,-0.437679 4.46733,-1.512584 -0.51788,-0.619097 -1.03741,-1.237533 -1.55857,-1.855301 -0.76735,0.655864 -1.59408,0.953523 -2.72397,0.905039 -1.62377,-0.06968 -2.72349,-0.92083 -2.97186,-2.254558 2.69888,0.102224 5.39709,0.22237 8.09438,0.360435 0.033,-0.255161 0.09,-0.588814 0.10216,-0.82527 -10e-6,-10e-7 -2e-5,-10e-7 -3e-5,-2e-6 z m -5.42183,-3.43617 c 1.40146,0.05908 2.38277,0.974882 2.53982,2.326494 -1.7618,-0.08188 -3.52395,-0.156137 -5.28639,-0.222775 0.27092,-1.353183 1.32364,-2.163705 2.74657,-2.103719 z m 14.35873,-1.5613715 c -1.46585,-0.095877 -2.76133,0.3195634 -3.65685,1.1763335 l 0.074,-1.2419258 c -0.99701,-0.059392 -1.99417,-0.1163573 -2.99145,-0.1708971 l -0.58018,10.6085889 c 1.02612,0.05612 2.05211,0.114854 3.07793,0.176201 l 0.31357,-5.243615 c 0.11671,-1.95157 1.25056,-2.794687 2.74958,-2.698706 1.38062,0.0884 2.125,0.931953 2.00914,2.645667 l -0.3783,5.595683 c 1.02531,0.06932 2.05046,0.141255 3.07541,0.215803 l 0.44121,-6.066395 c 0.23493,-3.230158 -1.58489,-4.8300066 -4.13404,-4.9967375 z m 11.57919,11.8472055 c 3.36611,0.289245 6.02077,-1.733717 6.32541,-4.918398 0.30453,-3.183482 -1.95053,-5.6865063 -5.38879,-5.981931 -3.43831,-0.2954291 -6.10721,1.784621 -6.35013,4.973435 -0.24302,3.189954 2.04741,5.637649 5.41351,5.926894 z m 0.21641,-2.518487 c -1.54184,-0.132486 -2.63869,-1.330494 -2.48972,-3.161021 0.14896,-1.830527 1.43673,-2.8361 2.99353,-2.702333 1.5568,0.133767 2.63424,1.342482 2.46881,3.1716 -0.16543,1.829118 -1.43078,2.82424 -2.97262,2.691754 z m 16.68352,-5.269856 c -0.70265,-1.112511 -1.88898,-1.741243 -3.38915,-1.901274 -2.98034,-0.317928 -5.58098,1.474161 -5.88269,4.559925 -0.30171,3.085764 1.86289,5.338646 4.79336,5.651282 1.37636,0.146836 2.58334,-0.156478 3.49015,-0.948863 l -0.0507,0.451376 c -0.214,1.905311 -1.26637,2.775854 -3.42002,2.545231 -1.35095,-0.144665 -2.77451,-0.768384 -3.60451,-1.585768 -0.48008,0.692618 -0.95871,1.385798 -1.4359,2.079535 1.13785,1.083961 3.02258,1.772066 5.01182,1.985878 3.77724,0.405995 6.10311,-1.137945 6.56449,-5.06438 l 1.03249,-8.786871 c -0.98536,-0.115778 -1.97099,-0.229164 -2.95689,-0.340157 z m -3.59813,5.862032 c -1.61932,-0.174417 -2.69763,-1.336664 -2.53778,-2.888572 0.15982,-1.551658 1.46032,-2.471198 3.09609,-2.295017 1.63574,0.176178 2.69077,1.349366 2.51656,2.899452 -0.17427,1.550626 -1.45803,2.458287 -3.07487,2.284137 z m 22.89681,-3.617158 c -0.65023,-0.972291 -1.70715,-1.542908 -3.02246,-1.726396 -3.02844,-0.422472 -5.63874,1.390975 -6.07065,4.70044 -0.4319,3.309466 1.58466,5.720521 4.55891,6.135496 1.40854,0.196523 2.58693,-0.09265 3.48463,-0.900353 l -0.17589,1.21174 c 0.97134,0.141003 1.94233,0.284389 2.91297,0.430157 l 2.17608,-14.491387 c -1.04106,-0.156308 -2.08251,-0.3099421 -3.12434,-0.4609008 z m -3.65441,6.680186 c -1.53249,-0.215199 -2.56337,-1.470455 -2.31624,-3.290391 0.24713,-1.819935 1.58714,-2.754888 3.13459,-2.537607 1.52761,0.214495 2.55839,1.482256 2.2948,3.2999 -0.26359,1.817645 -1.6003,2.740537 -3.11315,2.528098 z m 12.74299,-6.433193 c -0.98637,-0.15786 -1.97313,-0.313295 -2.96025,-0.466306 l -1.62766,10.499701 c 1.0155,0.157438 2.0306,0.317487 3.04528,0.480148 l 0.79394,-4.953132 c 0.32187,-2.008068 1.59369,-2.746184 3.29533,-2.465197 0.23686,0.03911 0.43169,0.09143 0.68499,0.153554 l 0.4666,-2.805413 c -1.64778,-0.274034 -3.00469,0.04777 -3.91983,0.941231 0.0739,-0.461529 0.14774,-0.923058 0.2216,-1.384586 z m 9.18489,8.882719 c -0.54968,-2.545199 -1.11148,-5.090056 -1.68539,-7.634484 -1.06364,-0.183864 -2.12777,-0.364897 -3.19236,-0.5431 0.90961,3.743316 1.79224,7.487896 2.64783,11.23345 1.04468,0.182939 2.08888,0.36866 3.13258,0.557162 2.10098,-3.219725 4.22715,-6.429257 6.37847,-9.628304 -0.98835,-0.18614 -1.97715,-0.369822 -2.9664,-0.551048 -1.44987,2.184033 -2.88811,4.372838 -4.31473,6.566324 z m 17.55513,1.478058 c 0.69656,-3.345317 -1.27934,-5.898689 -4.39755,-6.51768 -3.23664,-0.642499 -6.094,1.153968 -6.68353,4.278695 -0.58628,3.107529 1.3474,5.81517 4.94026,6.53108 1.87897,0.374402 3.4481,0.09213 4.64661,-0.809768 -0.41678,-0.691349 -0.83531,-1.382282 -1.2556,-2.072794 -0.85897,0.530515 -1.72162,0.697905 -2.83079,0.476753 -1.59398,-0.317811 -2.55036,-1.32755 -2.59145,-2.683787 2.65166,0.514593 5.2999,1.047088 7.94446,1.597484 0.0717,-0.247135 0.17935,-0.568143 0.22762,-0.799977 -10e-6,-2e-6 -2e-5,-4e-6 -3e-5,-6e-6 z m -4.83176,-4.227755 c 1.37617,0.273245 2.20567,1.328894 2.15359,2.688842 -1.72873,-0.351149 -3.45898,-0.694688 -5.19068,-1.030615 0.47512,-1.295885 1.63982,-1.935663 3.03709,-1.658227 z m 13.61279,-0.755423 c 1.39265,-0.662929 2.79012,-1.321063 4.19239,-1.974354 -1.10621,-0.251739 -2.2131,-0.500377 -3.32065,-0.745913 -1.09528,0.728344 -2.18681,1.459595 -3.2746,2.193727 0.8013,0.173885 1.60226,0.349398 2.40286,0.52654 z m -2.85643,11.809802 c 2.18012,0.481662 4.11179,-0.08979 5.24602,-1.572558 -0.68316,-0.602547 -1.36838,-1.203902 -2.05566,-1.804053 -0.78829,0.875364 -1.71523,1.113137 -2.6644,0.903485 -1.53067,-0.338092 -2.50405,-1.658915 -2.11215,-3.473811 0.3919,-1.814894 1.83576,-2.615376 3.38157,-2.274009 0.95908,0.211797 1.70125,0.843502 2.04562,1.953684 0.88058,-0.240492 1.7625,-0.479025 2.64576,-0.715589 -0.37299,-1.868955 -1.90609,-3.212247 -4.12647,-3.702617 -3.44991,-0.761911 -6.36913,0.951854 -7.02776,4.08164 -0.65918,3.13239 1.30235,5.860361 4.66747,6.603828 z m 13.1065,-8.209026 c -1.68444,-0.404429 -3.49156,-0.362581 -4.83425,0.178354 0.20298,0.783849 0.40457,1.567742 0.60478,2.351678 0.89985,-0.418754 2.13629,-0.512475 3.24816,-0.246317 1.63885,0.392308 2.2332,1.333048 1.91993,2.618056 -0.8021,-0.195541 -1.60459,-0.389416 -2.40746,-0.581625 -3.18978,-0.763632 -4.78576,0.217448 -5.20764,2.041712 -0.41424,1.791209 0.72333,3.46874 3.14089,4.045094 1.5179,0.361871 2.71371,0.12509 3.50156,-0.679205 l -0.31393,1.285816 c 0.93444,0.228198 1.86833,0.458682 2.80166,0.691451 l 1.46727,-5.8848 c 0.77841,-3.12194 -0.70476,-5.048007 -3.92097,-5.820214 z m -2.30255,8.569072 c -1.05982,-0.254102 -1.57923,-0.903889 -1.40177,-1.653858 0.16352,-0.691111 0.73198,-1.10732 2.14613,-0.767897 0.69063,0.165764 1.38097,0.332764 2.07101,0.501002 l -0.25735,1.055605 c -0.57682,0.855599 -1.55593,1.105411 -2.55802,0.865148 z"
           id="path365"
           style="font-weight:bold;font-size:19.7556px;line-height:0;font-family:Montserrat;-inkscape-font-specification:'Montserrat Bold';text-align:center;letter-spacing:0px;text-anchor:middle;white-space:pre;inline-size:412.595;display:inline;fill:#2b1100;stroke-width:2;stroke-linejoin:bevel;paint-order:fill markers stroke"
           transform="matrix(1.1666335,0,0,1.1666335,-33.960479,20.001301)"
           aria-label="Rasadnik zimzelenog drvea"
           inkscape:path-effect="#path-effect370"
           inkscape:original-d="m 205.78526,31.618791 c 1.79776,-0.770469 2.84481,-2.29165 2.84481,-4.365988 0,-3.101629 -2.31141,-5.017922 -6.0057,-5.017922 h -5.98595 v 13.82892 h 3.20041 v -3.852342 h 2.78554 0.15804 l 2.66701,3.852342 h 3.43747 z m -0.39511,-4.365988 c 0,1.501426 -0.98778,2.410183 -2.94358,2.410183 h -2.60774 V 24.84262 h 2.60774 c 1.9558,0 2.94358,0.889002 2.94358,2.410183 z m 9.73954,-1.97556 c -1.69898,0 -3.41772,0.454379 -4.5833,1.284114 l 1.10631,2.153361 c 0.77047,-0.612424 1.93605,-0.98778 3.06212,-0.98778 1.65947,0 2.4497,0.770468 2.4497,2.094093 h -2.4497 c -3.23992,0 -4.56354,1.30387 -4.56354,3.180652 0,1.837271 1.48167,3.220163 3.97087,3.220163 1.5607,0 2.66701,-0.513646 3.23992,-1.48167 v 1.323625 h 2.88432 v -6.064969 c 0,-3.220163 -1.87678,-4.721589 -5.1167,-4.721589 z m -0.23707,8.870265 c -1.08656,0 -1.73849,-0.513646 -1.73849,-1.284114 0,-0.711202 0.45438,-1.244603 1.89654,-1.244603 h 2.11385 v 1.086558 c -0.3556,0.968024 -1.24461,1.442159 -2.2719,1.442159 z m 11.71508,2.074338 c 3.18066,0 5.01793,-1.402648 5.01793,-3.378208 0,-4.188187 -6.42057,-2.429939 -6.42057,-4.247454 0,-0.553157 0.59266,-0.98778 1.97556,-0.98778 0.96802,0 2.01507,0.197556 3.06211,0.790224 l 1.0273,-2.192872 c -1.00754,-0.592668 -2.6275,-0.928513 -4.08941,-0.928513 -3.10163,0 -4.91915,1.422403 -4.91915,3.437475 0,4.247454 6.42057,2.46945 6.42057,4.207942 0,0.592668 -0.5334,0.968025 -1.9558,0.968025 -1.30387,0 -2.74603,-0.414868 -3.6943,-1.027291 l -1.02729,2.212627 c 0.98778,0.651935 2.80529,1.145825 4.60305,1.145825 z m 11.20143,-10.944603 c -1.69898,0 -3.41772,0.454379 -4.5833,1.284114 l 1.10632,2.153361 c 0.77047,-0.612424 1.93605,-0.98778 3.06211,-0.98778 1.65948,0 2.4497,0.770468 2.4497,2.094093 h -2.4497 c -3.23991,0 -4.56354,1.30387 -4.56354,3.180652 0,1.837271 1.48167,3.220163 3.97088,3.220163 1.56069,0 2.667,-0.513646 3.23992,-1.48167 v 1.323625 h 2.88431 v -6.064969 c 0,-3.220163 -1.87678,-4.721589 -5.1167,-4.721589 z m -0.23706,8.870265 c -1.08656,0 -1.7385,-0.513646 -1.7385,-1.284114 0,-0.711202 0.45438,-1.244603 1.89654,-1.244603 h 2.11385 v 1.086558 c -0.3556,0.968024 -1.2446,1.442159 -2.27189,1.442159 z m 15.96253,-7.586151 c -0.77047,-0.869246 -1.87679,-1.284114 -3.18065,-1.284114 -3.00286,0 -5.31426,2.133605 -5.31426,5.472301 0,3.338697 2.3114,5.472302 5.31426,5.472302 1.4224,0 2.54847,-0.454379 3.31894,-1.382892 v 1.224847 h 2.94358 V 21.405146 h -3.08187 z m -2.64725,7.131772 c -1.54094,0 -2.72628,-1.106314 -2.72628,-2.943585 0,-1.83727 1.18534,-2.943584 2.72628,-2.943584 1.52118,0 2.70651,1.106314 2.70651,2.943584 0,1.837271 -1.18533,2.943585 -2.70651,2.943585 z m 15.034,-8.415886 c -1.44216,0 -2.68676,0.49389 -3.5165,1.402648 v -1.244603 h -2.94358 v 10.628513 h 3.08187 v -5.25499 c 0,-1.955804 1.0668,-2.864562 2.54847,-2.864562 1.36314,0 2.15336,0.790224 2.15336,2.508961 v 5.610591 h 3.08188 v -6.084725 c 0,-3.239918 -1.89654,-4.701833 -4.4055,-4.701833 z m 8.73197,-1.323625 c 1.14583,0 1.91629,-0.750713 1.91629,-1.778004 0,-0.948269 -0.77046,-1.65947 -1.91629,-1.65947 -1.14582,0 -1.91629,0.750712 -1.91629,1.718737 0,0.968024 0.77047,1.718737 1.91629,1.718737 z m 1.54094,12.110183 V 25.435288 h -3.08188 v 10.628513 z m 14.52038,0 -4.82037,-6.124236 4.42526,-4.504277 h -3.67455 l -4.50427,4.26721 v -8.297352 h -3.08188 v 14.658655 h 3.08188 v -2.706517 l 1.48167,-1.461915 3.35845,4.168432 z m 15.54767,-8.771487 v -1.857026 h -9.1666 v 2.370672 h 5.27475 l -5.41304,6.400814 v 1.857027 h 9.48269 v -2.370672 h -5.59083 z m 3.69428,-3.338696 c 1.14582,0 1.91629,-0.750713 1.91629,-1.778004 0,-0.948269 -0.77047,-1.65947 -1.91629,-1.65947 -1.14582,0 -1.91629,0.750712 -1.91629,1.718737 0,0.968024 0.77047,1.718737 1.91629,1.718737 z m 1.54094,12.110183 V 25.435288 h -3.08188 v 10.628513 z m 16.47618,-10.786558 c -1.6002,0 -2.98309,0.651935 -3.83259,1.738493 -0.75071,-1.16558 -2.01507,-1.738493 -3.49674,-1.738493 -1.36313,0 -2.54847,0.474135 -3.33869,1.382892 v -1.224847 h -2.94359 v 10.628513 h 3.08188 v -5.334012 c 0,-1.896538 0.96802,-2.78554 2.33116,-2.78554 1.28411,0 2.01507,0.790224 2.01507,2.508961 v 5.610591 h 3.08187 v -5.334012 c 0,-1.896538 0.96803,-2.78554 2.35092,-2.78554 1.2446,0 2.01507,0.790224 2.01507,2.508961 v 5.610591 h 3.08187 v -6.084725 c 0,-3.239918 -1.81751,-4.701833 -4.34623,-4.701833 z m 15.68594,2.015071 v -1.857026 h -9.1666 v 2.370672 h 5.27475 l -5.41304,6.400814 v 1.857027 h 9.48269 v -2.370672 h -5.59083 z m 12.42626,3.496742 c 0,-3.417719 -2.41018,-5.511813 -5.53157,-5.511813 -3.23992,0 -5.66985,2.29165 -5.66985,5.472301 0,3.160896 2.39042,5.472302 6.06496,5.472302 1.9163,0 3.39797,-0.592668 4.38575,-1.718738 l -1.63972,-1.778004 c -0.73095,0.691446 -1.54093,1.027292 -2.667,1.027292 -1.61996,0 -2.74603,-0.80998 -3.04237,-2.133605 h 8.04053 c 0.0198,-0.256823 0.0593,-0.592668 0.0593,-0.829735 z m -5.51181,-3.180652 c 1.38289,0 2.39043,0.869246 2.60774,2.212627 h -5.23524 c 0.21731,-1.363136 1.22485,-2.212627 2.6275,-2.212627 z m 10.64827,8.455397 V 21.405146 h -3.08187 v 14.658655 z m 13.27579,-5.274745 c 0,-3.417719 -2.41019,-5.511813 -5.53157,-5.511813 -3.23992,0 -5.66986,2.29165 -5.66986,5.472301 0,3.160896 2.39043,5.472302 6.06497,5.472302 1.91629,0 3.39796,-0.592668 4.38574,-1.718738 l -1.63971,-1.778004 c -0.73096,0.691446 -1.54094,1.027292 -2.66701,1.027292 -1.61996,0 -2.74602,-0.80998 -3.04236,-2.133605 h 8.04053 c 0.0198,-0.256823 0.0593,-0.592668 0.0593,-0.829735 z m -5.51182,-3.180652 c 1.3829,0 2.39043,0.869246 2.60774,2.212627 h -5.23523 c 0.21731,-1.363136 1.22485,-2.212627 2.62749,-2.212627 z m 14.02649,-2.331161 c -1.44216,0 -2.68676,0.49389 -3.5165,1.402648 v -1.244603 h -2.94358 v 10.628513 h 3.08187 v -5.25499 c 0,-1.955804 1.0668,-2.864562 2.54847,-2.864562 1.36314,0 2.15336,0.790224 2.15336,2.508961 v 5.610591 h 3.08188 v -6.084725 c 0,-3.239918 -1.89654,-4.701833 -4.4055,-4.701833 z m 12.32748,10.944603 c 3.37821,0 5.8279,-2.271894 5.8279,-5.472302 0,-3.200407 -2.44969,-5.472301 -5.8279,-5.472301 -3.37821,0 -5.84766,2.271894 -5.84766,5.472301 0,3.200408 2.46945,5.472302 5.84766,5.472302 z m 0,-2.528717 c -1.54093,0 -2.72627,-1.106314 -2.72627,-2.943585 0,-1.83727 1.18534,-2.943584 2.72627,-2.943584 1.54094,0 2.70652,1.106314 2.70652,2.943584 0,1.837271 -1.16558,2.943585 -2.70652,2.943585 z m 15.92302,-6.894705 c -0.80998,-1.027291 -2.03482,-1.521181 -3.51649,-1.521181 -2.94359,0 -5.31426,2.034827 -5.31426,5.136456 0,3.101629 2.37067,5.136456 5.31426,5.136456 1.38289,0 2.54847,-0.434623 3.35845,-1.323625 v 0.454379 c 0,1.916293 -0.94827,2.904073 -3.12139,2.904073 -1.36313,0 -2.8448,-0.474134 -3.75356,-1.205092 l -1.22485,2.212628 c 1.24461,0.968024 3.20041,1.461914 5.21548,1.461914 3.83259,0 5.96619,-1.817515 5.96619,-5.768635 v -8.850509 h -2.92383 z m -2.90407,6.223014 c -1.61996,0 -2.80529,-1.047046 -2.80529,-2.607739 0,-1.560692 1.18533,-2.607739 2.80529,-2.607739 1.61996,0 2.78554,1.047047 2.78554,2.607739 0,1.560693 -1.16558,2.607739 -2.78554,2.607739 z m 22.02754,-6.460081 c -0.77047,-0.869246 -1.87678,-1.284114 -3.18065,-1.284114 -3.00285,0 -5.31426,2.133605 -5.31426,5.472301 0,3.338697 2.31141,5.472302 5.31426,5.472302 1.4224,0 2.54847,-0.454379 3.31894,-1.382892 v 1.224847 h 2.94358 V 21.405146 h -3.08187 z m -2.64725,7.131772 c -1.54094,0 -2.72627,-1.106314 -2.72627,-2.943585 0,-1.83727 1.18533,-2.943584 2.72627,-2.943584 1.52118,0 2.70652,1.106314 2.70652,2.943584 0,1.837271 -1.18534,2.943585 -2.70652,2.943585 z m 11.51749,-8.257841 h -2.94358 v 10.628513 h 3.08187 v -5.017923 c 0,-2.034826 1.12607,-2.96334 2.82505,-2.96334 0.23707,0 0.43463,0.01976 0.69145,0.03951 v -2.844807 c -1.63972,0 -2.90408,0.533401 -3.65479,1.560693 z m 10.41119,7.23055 -2.94358,-7.23055 H 443.544 l 4.46476,10.628513 h 3.18066 l 4.48452,-10.628513 h -2.96334 z m 17.38494,-1.876782 c 0,-3.417719 -2.41019,-5.511813 -5.53157,-5.511813 -3.23992,0 -5.66986,2.29165 -5.66986,5.472301 0,3.160896 2.39043,5.472302 6.06497,5.472302 1.91629,0 3.39796,-0.592668 4.38574,-1.718738 l -1.63971,-1.778004 c -0.73096,0.691446 -1.54094,1.027292 -2.66701,1.027292 -1.61996,0 -2.74603,-0.80998 -3.04236,-2.133605 h 8.04053 c 0.0197,-0.256823 0.0593,-0.592668 0.0593,-0.829735 z m -5.51182,-3.180652 c 1.38289,0 2.39043,0.869246 2.60774,2.212627 h -5.23523 c 0.21731,-1.363136 1.22485,-2.212627 2.62749,-2.212627 z m 12.93993,-3.536252 3.57576,-2.844807 h -3.31894 l -2.66701,2.844807 z m -0.23707,12.149694 c 2.23238,0 3.99063,-0.98778 4.7611,-2.686762 l -2.39043,-1.30387 c -0.57291,1.027292 -1.4224,1.461915 -2.39043,1.461915 -1.56069,0 -2.78554,-1.086558 -2.78554,-2.943585 0,-1.857026 1.22485,-2.943584 2.78554,-2.943584 0.96803,0 1.81752,0.454379 2.39043,1.461914 l 2.39043,-1.284114 c -0.77047,-1.738492 -2.52872,-2.706517 -4.7611,-2.706517 -3.45723,0 -5.92668,2.271894 -5.92668,5.472301 0,3.200408 2.46945,5.472302 5.92668,5.472302 z m 10.82608,-10.944603 c -1.69898,0 -3.41772,0.454379 -4.5833,1.284114 l 1.10631,2.153361 c 0.77047,-0.612424 1.93605,-0.98778 3.06212,-0.98778 1.65947,0 2.44969,0.770468 2.44969,2.094093 h -2.44969 c -3.23992,0 -4.56354,1.30387 -4.56354,3.180652 0,1.837271 1.48167,3.220163 3.97087,3.220163 1.56069,0 2.66701,-0.513646 3.23992,-1.48167 v 1.323625 h 2.88432 v -6.064969 c 0,-3.220163 -1.87678,-4.721589 -5.1167,-4.721589 z m -0.23707,8.870265 c -1.08656,0 -1.73849,-0.513646 -1.73849,-1.284114 0,-0.711202 0.45438,-1.244603 1.89653,-1.244603 h 2.11385 v 1.086558 c -0.3556,0.968024 -1.2446,1.442159 -2.27189,1.442159 z"
           inkscape:transform-center-y="11.663742"
           inkscape:transform-center-x="0.087700252"
           inkscape:label="toptext" />
        <g
           id="g367"
           inkscape:label="title"
           style="display:inline;fill:#2b1100">
          <path
             d="m 181.58016,99.999999 v 49.999971 h 11.43001 v -13.61723 h 9.94834 c 13.1939,0 21.4489,-6.8439 21.4489,-17.85057 0,-11.07723 -8.255,-18.532171 -21.4489,-18.532171 z m 11.43001,27.069401 v -17.75606 h 9.31334 c 6.985,0 10.51278,3.78605 10.51278,9.21883 0,5.36223 -3.52778,8.53723 -10.51278,8.53723 z m 50.8706,2.32833 h 22.93057 v -8.89 h -22.93057 v -11.3355 h 25.96446 v -9.172231 h -37.32392 v 49.999971 h 38.24114 v -9.17223 h -26.88168 z"
             id="path366"
             style="font-weight:bold;font-size:70.5556px;font-family:Montserrat;-inkscape-font-specification:'Montserrat, Bold';fill:#2b1100;stroke-width:2.632;stroke-linejoin:bevel;paint-order:fill markers stroke"
             aria-label="PE"
             sodipodi:nodetypes="ccccssscccssscccccccccccccc"
             inkscape:label="title1" />
          <path
             style="font-weight:bold;font-size:70.5556px;font-family:Montserrat;-inkscape-font-specification:'Montserrat Bold';fill:#2b1100;stroke-width:2.632;stroke-linejoin:bevel;paint-order:fill markers stroke"
             d="m 353.71141,133.47677 c 6.42056,-2.75167 10.16001,-8.18445 10.16001,-15.59279 0,-11.07723 -8.25501,-17.921126 -21.44891,-17.921126 H 321.04416 V 150 h 11.43001 v -14.40657 h 9.94834 0.56445 L 352.96081,150 h 12.27668 z m -1.41111,-15.59279 c 0,5.36222 -3.52778,8.60778 -10.51279,8.60778 h -9.31334 v -17.21557 h 9.31334 c 6.98501,0 10.51279,3.17501 10.51279,8.60779 z M 396.82092,150 c 15.52224,0 27.0228,-10.09656 27.0228,-24.84268 0,-14.74613 -11.50056,-25.157321 -27.0228,-25.157321 -15.59278,0 -27.02279,10.481751 -27.02279,25.157321 0,14.67556 11.43001,24.84268 27.02279,24.84268 z m 0,-9.53823 c -8.81945,0 -15.45167,-5.92056 -15.45167,-15.30445 0,-9.3839 6.63222,-15.42065 15.45167,-15.42065 8.81945,0 15.45168,6.03675 15.45168,15.42065 0,9.38389 -6.63223,15.30445 -15.45168,15.30445 z m 54.8922,-5.22111 -15.00883,-35.240661 H 424.35706 L 445.92496,150 H 456.6536 L 478.30089,99.999999 H 466.94143 Z M 493.83489,150 V 99.999999 H 482.40488 V 150 Z M 531.08818,95.941185 543.85874,85.781178 H 532.0054 l -9.52501,10.160007 z M 529.18318,150 c 8.60778,0 15.73389,-2.906 20.39056,-8.62101 l -7.33778,-6.77333 c -3.31611,3.88055 -7.47889,5.85611 -12.41778,5.85611 -9.24279,0 -15.80446,-5.99112 -15.80446,-15.30445 0,-9.31334 6.56167,-15.42065 15.80446,-15.42065 4.93889,0 9.10059,1.59175 12.4167,5.40175 l 7.33778,-6.77334 c -4.65667,-5.64445 -11.7817,-8.365081 -20.31893,-8.365081 -15.38112,0 -26.81113,10.270081 -26.81113,25.157321 0,14.88723 11.43001,24.84268 26.74058,24.84268 z"
             id="path367"
             aria-label="ROVI"
             sodipodi:nodetypes="csscccccccccssccssssssssssssccccccccccccccccccsccsssccsss"
             inkscape:label="title2" />
        </g>
      </g>
    </g>
  </g>
</svg>
